<?xml version="1.0" encoding="UTF-8" standalone="no"?>
<!DOCTYPE svg PUBLIC "-//W3C//DTD SVG 1.1//EN"
 "http://www.w3.org/Graphics/SVG/1.1/DTD/svg11.dtd">
<!-- Generated by graphviz version 2.50.0 (0)
 -->
<!-- Title: G Pages: 1 -->
<svg width="286pt" height="375pt"
 viewBox="0.00 0.00 286.38 375.00" xmlns="http://www.w3.org/2000/svg" xmlns:xlink="http://www.w3.org/1999/xlink">
<g id="graph0" class="graph" transform="scale(1 1) rotate(0) translate(4 371)">
<title>G</title>
<polygon fill="white" stroke="transparent" points="-4,4 -4,-371 282.38,-371 282.38,4 -4,4"/>
<!-- 140658408547392 -->
<g id="node1" class="node">
<title>140658408547392</title>
<polygon fill="#cb4b16" stroke="transparent" points="37.5,0.5 37.5,-16.5 101.5,-16.5 101.5,0.5 37.5,0.5"/>
<polygon fill="none" stroke="#002b36" points="37.5,0.5 37.5,-16.5 101.5,-16.5 101.5,0.5 37.5,0.5"/>
<text text-anchor="start" x="40.5" y="-6.5" font-family="Helvetica,sans-Serif" font-weight="bold" font-size="10.00" fill="#fdf6e3">forest_acc</text>
</g>
<!-- 140656954281072 -->
<g id="node2" class="node">
<title>140656954281072</title>
<polygon fill="#cb4b16" stroke="transparent" points="229.5,-279.5 229.5,-296.5 242.5,-296.5 242.5,-279.5 229.5,-279.5"/>
<polygon fill="none" stroke="#002b36" points="229.5,-279.5 229.5,-296.5 242.5,-296.5 242.5,-279.5 229.5,-279.5"/>
<text text-anchor="start" x="232.5" y="-286.5" font-family="Helvetica,sans-Serif" font-weight="bold" font-size="10.00" fill="#fdf6e3">y</text>
</g>
<!-- 140656891611744 -->
<g id="node6" class="node">
<title>140656891611744</title>
<polygon fill="#fdf6e3" stroke="transparent" points="111.5,-226.5 111.5,-243.5 163.5,-243.5 163.5,-226.5 111.5,-226.5"/>
<polygon fill="none" stroke="#002b36" points="111.5,-226.5 111.5,-243.5 163.5,-243.5 163.5,-226.5 111.5,-226.5"/>
<text text-anchor="start" x="133.5" y="-233.5" font-family="Helvetica,sans-Serif" font-weight="bold" font-size="10.00" fill="#002b36">X</text>
<polygon fill="#fdf6e3" stroke="transparent" points="163.5,-226.5 163.5,-243.5 195.5,-243.5 195.5,-226.5 163.5,-226.5"/>
<polygon fill="none" stroke="#002b36" points="163.5,-226.5 163.5,-243.5 195.5,-243.5 195.5,-226.5 163.5,-226.5"/>
<text text-anchor="start" x="176" y="-233.5" font-family="Helvetica,sans-Serif" font-weight="bold" font-size="10.00" fill="#002b36">y</text>
<polygon fill="#fdf6e3" stroke="transparent" points="195.5,-226.5 195.5,-243.5 262.5,-243.5 262.5,-226.5 195.5,-226.5"/>
<polygon fill="none" stroke="#002b36" points="195.5,-226.5 195.5,-243.5 262.5,-243.5 262.5,-226.5 195.5,-226.5"/>
<text text-anchor="start" x="208" y="-233.5" font-family="Helvetica,sans-Serif" font-weight="bold" font-size="10.00" fill="#002b36">n_trees</text>
<polygon fill="#268bd2" stroke="transparent" points="111.5,-209.5 111.5,-226.5 262.5,-226.5 262.5,-209.5 111.5,-209.5"/>
<polygon fill="none" stroke="#002b36" points="111.5,-209.5 111.5,-226.5 262.5,-226.5 262.5,-209.5 111.5,-209.5"/>
<text text-anchor="start" x="114.5" y="-216.5" font-family="Helvetica,sans-Serif" font-weight="bold" font-size="10.00" fill="#fdf6e3">train_forest(X, y, n_trees)</text>
<polygon fill="#fdf6e3" stroke="transparent" points="111.5,-192.5 111.5,-209.5 262.5,-209.5 262.5,-192.5 111.5,-192.5"/>
<polygon fill="none" stroke="#002b36" points="111.5,-192.5 111.5,-209.5 262.5,-209.5 262.5,-192.5 111.5,-192.5"/>
<text text-anchor="start" x="162.5" y="-199.5" font-family="Helvetica,sans-Serif" font-weight="bold" font-size="10.00" fill="#002b36">output_0</text>
</g>
<!-- 140656954281072&#45;&gt;140656891611744 -->
<g id="edge2" class="edge">
<title>140656954281072&#45;&gt;140656891611744:y</title>
<path fill="none" stroke="#002b36" d="M228.63,-283.93C217.07,-277.75 194,-264.61 184.14,-253.27"/>
<polygon fill="#002b36" stroke="#002b36" points="187.11,-251.38 179.5,-244 180.85,-254.51 187.11,-251.38"/>
</g>
<!-- 140658408549984 -->
<g id="node7" class="node">
<title>140658408549984</title>
<polygon fill="#fdf6e3" stroke="transparent" points="0.5,-86.5 0.5,-103.5 73.5,-103.5 73.5,-86.5 0.5,-86.5"/>
<polygon fill="none" stroke="#002b36" points="0.5,-86.5 0.5,-103.5 73.5,-103.5 73.5,-86.5 0.5,-86.5"/>
<text text-anchor="start" x="22" y="-93.5" font-family="Helvetica,sans-Serif" font-weight="bold" font-size="10.00" fill="#002b36">trees</text>
<polygon fill="#fdf6e3" stroke="transparent" points="73.5,-86.5 73.5,-103.5 105.5,-103.5 105.5,-86.5 73.5,-86.5"/>
<polygon fill="none" stroke="#002b36" points="73.5,-86.5 73.5,-103.5 105.5,-103.5 105.5,-86.5 73.5,-86.5"/>
<text text-anchor="start" x="85.5" y="-93.5" font-family="Helvetica,sans-Serif" font-weight="bold" font-size="10.00" fill="#002b36">X</text>
<polygon fill="#fdf6e3" stroke="transparent" points="105.5,-86.5 105.5,-103.5 137.5,-103.5 137.5,-86.5 105.5,-86.5"/>
<polygon fill="none" stroke="#002b36" points="105.5,-86.5 105.5,-103.5 137.5,-103.5 137.5,-86.5 105.5,-86.5"/>
<text text-anchor="start" x="118" y="-93.5" font-family="Helvetica,sans-Serif" font-weight="bold" font-size="10.00" fill="#002b36">y</text>
<polygon fill="#268bd2" stroke="transparent" points="0.5,-69.5 0.5,-86.5 137.5,-86.5 137.5,-69.5 0.5,-69.5"/>
<polygon fill="none" stroke="#002b36" points="0.5,-69.5 0.5,-86.5 137.5,-86.5 137.5,-69.5 0.5,-69.5"/>
<text text-anchor="start" x="3.5" y="-76.5" font-family="Helvetica,sans-Serif" font-weight="bold" font-size="10.00" fill="#fdf6e3">eval_forest(trees, X, y)</text>
<polygon fill="#fdf6e3" stroke="transparent" points="0.5,-52.5 0.5,-69.5 137.5,-69.5 137.5,-52.5 0.5,-52.5"/>
<polygon fill="none" stroke="#002b36" points="0.5,-52.5 0.5,-69.5 137.5,-69.5 137.5,-52.5 0.5,-52.5"/>
<text text-anchor="start" x="44.5" y="-59.5" font-family="Helvetica,sans-Serif" font-weight="bold" font-size="10.00" fill="#002b36">output_0</text>
</g>
<!-- 140656954281072&#45;&gt;140658408549984 -->
<g id="edge7" class="edge">
<title>140656954281072&#45;&gt;140658408549984:y</title>
<path fill="none" stroke="#002b36" d="M242.14,-282.17C250.83,-274.71 265.65,-260.23 271.5,-244 279.18,-222.67 281.75,-213.22 271.5,-193 239.92,-130.69 214.3,-98.58 148.5,-95.71"/>
<polygon fill="#002b36" stroke="#002b36" points="148.57,-92.21 138.5,-95.5 148.42,-99.21 148.57,-92.21"/>
</g>
<!-- 140656891622544 -->
<g id="node3" class="node">
<title>140656891622544</title>
<polygon fill="#cb4b16" stroke="transparent" points="18.5,-139.5 18.5,-156.5 54.5,-156.5 54.5,-139.5 18.5,-139.5"/>
<polygon fill="none" stroke="#002b36" points="18.5,-139.5 18.5,-156.5 54.5,-156.5 54.5,-139.5 18.5,-139.5"/>
<text text-anchor="start" x="21.5" y="-146.5" font-family="Helvetica,sans-Serif" font-weight="bold" font-size="10.00" fill="#fdf6e3">trees</text>
</g>
<!-- 140656891622544&#45;&gt;140658408549984 -->
<g id="edge5" class="edge">
<title>140656891622544&#45;&gt;140658408549984:trees</title>
<path fill="none" stroke="#002b36" d="M36.5,-139.8C36.5,-133.41 36.5,-123.86 36.5,-114.27"/>
<polygon fill="#002b36" stroke="#002b36" points="40,-114 36.5,-104 33,-114 40,-114"/>
</g>
<!-- 140656954280256 -->
<g id="node4" class="node">
<title>140656954280256</title>
<polygon fill="#cb4b16" stroke="transparent" points="130.5,-279.5 130.5,-296.5 144.5,-296.5 144.5,-279.5 130.5,-279.5"/>
<polygon fill="none" stroke="#002b36" points="130.5,-279.5 130.5,-296.5 144.5,-296.5 144.5,-279.5 130.5,-279.5"/>
<text text-anchor="start" x="133.5" y="-286.5" font-family="Helvetica,sans-Serif" font-weight="bold" font-size="10.00" fill="#fdf6e3">X</text>
</g>
<!-- 140656954280256&#45;&gt;140656891611744 -->
<g id="edge1" class="edge">
<title>140656954280256&#45;&gt;140656891611744:X</title>
<path fill="none" stroke="#002b36" d="M137.5,-279.8C137.5,-273.41 137.5,-263.86 137.5,-254.27"/>
<polygon fill="#002b36" stroke="#002b36" points="141,-254 137.5,-244 134,-254 141,-254"/>
</g>
<!-- 140656954280256&#45;&gt;140658408549984 -->
<g id="edge6" class="edge">
<title>140656954280256&#45;&gt;140658408549984:X</title>
<path fill="none" stroke="#002b36" d="M130.48,-281.56C121.94,-273.88 107.89,-259.6 101.5,-244 79.19,-189.48 88.29,-168.81 89.4,-114.22"/>
<polygon fill="#002b36" stroke="#002b36" points="92.9,-114.04 89.5,-104 85.9,-113.96 92.9,-114.04"/>
</g>
<!-- 140656891618224 -->
<g id="node5" class="node">
<title>140656891618224</title>
<polygon fill="#cb4b16" stroke="transparent" points="190.5,-279.5 190.5,-296.5 210.5,-296.5 210.5,-279.5 190.5,-279.5"/>
<polygon fill="none" stroke="#002b36" points="190.5,-279.5 190.5,-296.5 210.5,-296.5 210.5,-279.5 190.5,-279.5"/>
<text text-anchor="start" x="193.5" y="-286.5" font-family="Helvetica,sans-Serif" font-weight="bold" font-size="10.00" fill="#fdf6e3">a0</text>
</g>
<!-- 140656891618224&#45;&gt;140656891611744 -->
<g id="edge3" class="edge">
<title>140656891618224&#45;&gt;140656891611744:n_trees</title>
<path fill="none" stroke="#002b36" d="M209.68,-279.86C216.18,-273.75 224.35,-264.49 227.82,-253.97"/>
<polygon fill="#002b36" stroke="#002b36" points="231.28,-254.44 229.5,-244 224.38,-253.28 231.28,-254.44"/>
</g>
<!-- 140656891611744&#45;&gt;140656891622544 -->
<g id="edge4" class="edge">
<title>140656891611744:output_0&#45;&gt;140656891622544</title>
<path fill="none" stroke="#002b36" d="M110.5,-200.5C85.2,-200.5 62.26,-180.03 48.84,-165.03"/>
<polygon fill="#002b36" stroke="#002b36" points="51.21,-162.42 42.09,-157.03 45.86,-166.93 51.21,-162.42"/>
</g>
<!-- 140658408549984&#45;&gt;140658408547392 -->
<g id="edge8" class="edge">
<title>140658408549984:output_0&#45;&gt;140658408547392</title>
<path fill="none" stroke="#002b36" d="M69.5,-53C69.5,-44.58 69.5,-35.24 69.5,-27.38"/>
<polygon fill="#002b36" stroke="#002b36" points="73,-27.2 69.5,-17.2 66,-27.2 73,-27.2"/>
</g>
<!-- 140656954282464 -->
<g id="node8" class="node">
<title>140656954282464</title>
<polygon fill="#268bd2" stroke="transparent" points="117.5,-350 117.5,-367 227.5,-367 227.5,-350 117.5,-350"/>
<polygon fill="none" stroke="#002b36" points="117.5,-350 117.5,-367 227.5,-367 227.5,-350 117.5,-350"/>
<text text-anchor="start" x="127" y="-357" font-family="Helvetica,sans-Serif" font-weight="bold" font-size="10.00" fill="#fdf6e3">generate_data()</text>
<polygon fill="#fdf6e3" stroke="transparent" points="117.5,-333 117.5,-350 172.5,-350 172.5,-333 117.5,-333"/>
<polygon fill="none" stroke="#002b36" points="117.5,-333 117.5,-350 172.5,-350 172.5,-333 117.5,-333"/>
<text text-anchor="start" x="120.5" y="-340" font-family="Helvetica,sans-Serif" font-weight="bold" font-size="10.00" fill="#002b36">output_0</text>
<polygon fill="#fdf6e3" stroke="transparent" points="172.5,-333 172.5,-350 227.5,-350 227.5,-333 172.5,-333"/>
<polygon fill="none" stroke="#002b36" points="172.5,-333 172.5,-350 227.5,-350 227.5,-333 172.5,-333"/>
<text text-anchor="start" x="175.5" y="-340" font-family="Helvetica,sans-Serif" font-weight="bold" font-size="10.00" fill="#002b36">output_1</text>
</g>
<!-- 140656954282464&#45;&gt;140656954281072 -->
<g id="edge10" class="edge">
<title>140656954282464:output_1&#45;&gt;140656954281072</title>
<path fill="none" stroke="#002b36" d="M228.5,-341C242.59,-341 242.1,-321.85 239.57,-306.9"/>
<polygon fill="#002b36" stroke="#002b36" points="242.99,-306.19 237.55,-297.1 236.14,-307.6 242.99,-306.19"/>
</g>
<!-- 140656954282464&#45;&gt;140656954280256 -->
<g id="edge9" class="edge">
<title>140656954282464:output_0&#45;&gt;140656954280256</title>
<path fill="none" stroke="#002b36" d="M144.5,-333C144.5,-324.37 143.14,-314.9 141.62,-307"/>
<polygon fill="#002b36" stroke="#002b36" points="145.02,-306.18 139.49,-297.14 138.18,-307.65 145.02,-306.18"/>
</g>
</g>
</svg>
