<?xml version="1.0" encoding="UTF-8" standalone="no"?>
<!DOCTYPE svg PUBLIC "-//W3C//DTD SVG 1.1//EN"
 "http://www.w3.org/Graphics/SVG/1.1/DTD/svg11.dtd">
<!-- Generated by graphviz version 2.50.0 (0)
 -->
<!-- Title: G Pages: 1 -->
<svg width="366pt" height="655pt"
 viewBox="0.00 0.00 365.50 655.00" xmlns="http://www.w3.org/2000/svg" xmlns:xlink="http://www.w3.org/1999/xlink">
<g id="graph0" class="graph" transform="scale(1 1) rotate(0) translate(4 651)">
<title>G</title>
<polygon fill="white" stroke="transparent" points="-4,4 -4,-651 361.5,-651 361.5,4 -4,4"/>
<!-- 140186503264864 -->
<g id="node1" class="node">
<title>140186503264864</title>
<polygon fill="#cb4b16" stroke="transparent" points="197.5,-559.5 197.5,-576.5 211.5,-576.5 211.5,-559.5 197.5,-559.5"/>
<polygon fill="none" stroke="#002b36" points="197.5,-559.5 197.5,-576.5 211.5,-576.5 211.5,-559.5 197.5,-559.5"/>
<text text-anchor="start" x="200.5" y="-566.5" font-family="Helvetica,sans-Serif" font-weight="bold" font-size="10.00" fill="#fdf6e3">X</text>
</g>
<!-- 140186504620224 -->
<g id="node10" class="node">
<title>140186504620224</title>
<polygon fill="#fdf6e3" stroke="transparent" points="178.5,-506.5 178.5,-523.5 230.5,-523.5 230.5,-506.5 178.5,-506.5"/>
<polygon fill="none" stroke="#002b36" points="178.5,-506.5 178.5,-523.5 230.5,-523.5 230.5,-506.5 178.5,-506.5"/>
<text text-anchor="start" x="200.5" y="-513.5" font-family="Helvetica,sans-Serif" font-weight="bold" font-size="10.00" fill="#002b36">X</text>
<polygon fill="#fdf6e3" stroke="transparent" points="230.5,-506.5 230.5,-523.5 262.5,-523.5 262.5,-506.5 230.5,-506.5"/>
<polygon fill="none" stroke="#002b36" points="230.5,-506.5 230.5,-523.5 262.5,-523.5 262.5,-506.5 230.5,-506.5"/>
<text text-anchor="start" x="243" y="-513.5" font-family="Helvetica,sans-Serif" font-weight="bold" font-size="10.00" fill="#002b36">y</text>
<polygon fill="#fdf6e3" stroke="transparent" points="262.5,-506.5 262.5,-523.5 329.5,-523.5 329.5,-506.5 262.5,-506.5"/>
<polygon fill="none" stroke="#002b36" points="262.5,-506.5 262.5,-523.5 329.5,-523.5 329.5,-506.5 262.5,-506.5"/>
<text text-anchor="start" x="275" y="-513.5" font-family="Helvetica,sans-Serif" font-weight="bold" font-size="10.00" fill="#002b36">n_trees</text>
<polygon fill="#268bd2" stroke="transparent" points="178.5,-489.5 178.5,-506.5 329.5,-506.5 329.5,-489.5 178.5,-489.5"/>
<polygon fill="none" stroke="#002b36" points="178.5,-489.5 178.5,-506.5 329.5,-506.5 329.5,-489.5 178.5,-489.5"/>
<text text-anchor="start" x="181.5" y="-496.5" font-family="Helvetica,sans-Serif" font-weight="bold" font-size="10.00" fill="#fdf6e3">train_forest(X, y, n_trees)</text>
<polygon fill="#fdf6e3" stroke="transparent" points="178.5,-472.5 178.5,-489.5 329.5,-489.5 329.5,-472.5 178.5,-472.5"/>
<polygon fill="none" stroke="#002b36" points="178.5,-472.5 178.5,-489.5 329.5,-489.5 329.5,-472.5 178.5,-472.5"/>
<text text-anchor="start" x="229.5" y="-479.5" font-family="Helvetica,sans-Serif" font-weight="bold" font-size="10.00" fill="#002b36">output_0</text>
</g>
<!-- 140186503264864&#45;&gt;140186504620224 -->
<g id="edge1" class="edge">
<title>140186503264864&#45;&gt;140186504620224:X</title>
<path fill="none" stroke="#002b36" d="M204.5,-559.8C204.5,-553.41 204.5,-543.86 204.5,-534.27"/>
<polygon fill="#002b36" stroke="#002b36" points="208,-534 204.5,-524 201,-534 208,-534"/>
</g>
<!-- 140186503264528 -->
<g id="node12" class="node">
<title>140186503264528</title>
<polygon fill="#fdf6e3" stroke="transparent" points="60.5,-86.5 60.5,-103.5 133.5,-103.5 133.5,-86.5 60.5,-86.5"/>
<polygon fill="none" stroke="#002b36" points="60.5,-86.5 60.5,-103.5 133.5,-103.5 133.5,-86.5 60.5,-86.5"/>
<text text-anchor="start" x="82" y="-93.5" font-family="Helvetica,sans-Serif" font-weight="bold" font-size="10.00" fill="#002b36">trees</text>
<polygon fill="#fdf6e3" stroke="transparent" points="133.5,-86.5 133.5,-103.5 165.5,-103.5 165.5,-86.5 133.5,-86.5"/>
<polygon fill="none" stroke="#002b36" points="133.5,-86.5 133.5,-103.5 165.5,-103.5 165.5,-86.5 133.5,-86.5"/>
<text text-anchor="start" x="145.5" y="-93.5" font-family="Helvetica,sans-Serif" font-weight="bold" font-size="10.00" fill="#002b36">X</text>
<polygon fill="#fdf6e3" stroke="transparent" points="165.5,-86.5 165.5,-103.5 197.5,-103.5 197.5,-86.5 165.5,-86.5"/>
<polygon fill="none" stroke="#002b36" points="165.5,-86.5 165.5,-103.5 197.5,-103.5 197.5,-86.5 165.5,-86.5"/>
<text text-anchor="start" x="178" y="-93.5" font-family="Helvetica,sans-Serif" font-weight="bold" font-size="10.00" fill="#002b36">y</text>
<polygon fill="#268bd2" stroke="transparent" points="60.5,-69.5 60.5,-86.5 197.5,-86.5 197.5,-69.5 60.5,-69.5"/>
<polygon fill="none" stroke="#002b36" points="60.5,-69.5 60.5,-86.5 197.5,-86.5 197.5,-69.5 60.5,-69.5"/>
<text text-anchor="start" x="63.5" y="-76.5" font-family="Helvetica,sans-Serif" font-weight="bold" font-size="10.00" fill="#fdf6e3">eval_forest(trees, X, y)</text>
<polygon fill="#fdf6e3" stroke="transparent" points="60.5,-52.5 60.5,-69.5 197.5,-69.5 197.5,-52.5 60.5,-52.5"/>
<polygon fill="none" stroke="#002b36" points="60.5,-52.5 60.5,-69.5 197.5,-69.5 197.5,-52.5 60.5,-52.5"/>
<text text-anchor="start" x="104.5" y="-59.5" font-family="Helvetica,sans-Serif" font-weight="bold" font-size="10.00" fill="#002b36">output_0</text>
</g>
<!-- 140186503264864&#45;&gt;140186503264528 -->
<g id="edge9" class="edge">
<title>140186503264864&#45;&gt;140186503264528:X</title>
<path fill="none" stroke="#002b36" d="M197.47,-561.16C189.19,-553.29 175.67,-539.04 168.5,-524 150.06,-485.33 149.5,-472.34 149.5,-429.5 149.5,-429.5 149.5,-429.5 149.5,-217.5 149.5,-170.6 149.5,-156.4 149.5,-114.11"/>
<polygon fill="#002b36" stroke="#002b36" points="153,-114 149.5,-104 146,-114 153,-114"/>
</g>
<!-- 140186503263856 -->
<g id="node2" class="node">
<title>140186503263856</title>
<polygon fill="#cb4b16" stroke="transparent" points="57.5,-139.5 57.5,-156.5 77.5,-156.5 77.5,-139.5 57.5,-139.5"/>
<polygon fill="none" stroke="#002b36" points="57.5,-139.5 57.5,-156.5 77.5,-156.5 77.5,-139.5 57.5,-139.5"/>
<text text-anchor="start" x="60.5" y="-146.5" font-family="Helvetica,sans-Serif" font-weight="bold" font-size="10.00" fill="#fdf6e3">a1</text>
</g>
<!-- 140186503263856&#45;&gt;140186503264528 -->
<g id="edge8" class="edge">
<title>140186503263856&#45;&gt;140186503264528:trees</title>
<path fill="none" stroke="#002b36" d="M76.68,-139.86C83.18,-133.75 91.35,-124.49 94.82,-113.97"/>
<polygon fill="#002b36" stroke="#002b36" points="98.28,-114.44 96.5,-104 91.38,-113.28 98.28,-114.44"/>
</g>
<!-- 140186503264432 -->
<g id="node3" class="node">
<title>140186503264432</title>
<polygon fill="#cb4b16" stroke="transparent" points="80.5,-419.5 80.5,-436.5 116.5,-436.5 116.5,-419.5 80.5,-419.5"/>
<polygon fill="none" stroke="#002b36" points="80.5,-419.5 80.5,-436.5 116.5,-436.5 116.5,-419.5 80.5,-419.5"/>
<text text-anchor="start" x="83.5" y="-426.5" font-family="Helvetica,sans-Serif" font-weight="bold" font-size="10.00" fill="#fdf6e3">trees</text>
</g>
<!-- 140186503263664 -->
<g id="node14" class="node">
<title>140186503263664</title>
<polygon fill="#fdf6e3" stroke="transparent" points="0.5,-366.5 0.5,-383.5 62.5,-383.5 62.5,-366.5 0.5,-366.5"/>
<polygon fill="none" stroke="#002b36" points="0.5,-366.5 0.5,-383.5 62.5,-383.5 62.5,-366.5 0.5,-366.5"/>
<text text-anchor="start" x="22" y="-373.5" font-family="Helvetica,sans-Serif" font-weight="bold" font-size="10.00" fill="#002b36">idx</text>
<polygon fill="#fdf6e3" stroke="transparent" points="62.5,-366.5 62.5,-383.5 121.5,-383.5 121.5,-366.5 62.5,-366.5"/>
<polygon fill="none" stroke="#002b36" points="62.5,-366.5 62.5,-383.5 121.5,-383.5 121.5,-366.5 62.5,-366.5"/>
<text text-anchor="start" x="84.5" y="-373.5" font-family="Helvetica,sans-Serif" font-weight="bold" font-size="10.00" fill="#002b36">lst</text>
<polygon fill="#268bd2" stroke="transparent" points="0.5,-349.5 0.5,-366.5 121.5,-366.5 121.5,-349.5 0.5,-349.5"/>
<polygon fill="none" stroke="#002b36" points="0.5,-349.5 0.5,-366.5 121.5,-366.5 121.5,-349.5 0.5,-349.5"/>
<text text-anchor="start" x="3.5" y="-356.5" font-family="Helvetica,sans-Serif" font-weight="bold" font-size="10.00" fill="#fdf6e3">__getitem__(idx, lst)</text>
<polygon fill="#fdf6e3" stroke="transparent" points="0.5,-332.5 0.5,-349.5 121.5,-349.5 121.5,-332.5 0.5,-332.5"/>
<polygon fill="none" stroke="#002b36" points="0.5,-332.5 0.5,-349.5 121.5,-349.5 121.5,-332.5 0.5,-332.5"/>
<text text-anchor="start" x="36.5" y="-339.5" font-family="Helvetica,sans-Serif" font-weight="bold" font-size="10.00" fill="#002b36">output_0</text>
</g>
<!-- 140186503264432&#45;&gt;140186503263664 -->
<g id="edge15" class="edge">
<title>140186503264432&#45;&gt;140186503263664:lst</title>
<path fill="none" stroke="#002b36" d="M96.8,-419.84C95.48,-413.42 93.75,-403.76 92.95,-394.03"/>
<polygon fill="#002b36" stroke="#002b36" points="96.44,-393.83 92.5,-384 89.45,-394.15 96.44,-393.83"/>
</g>
<!-- 140186503266064 -->
<g id="node4" class="node">
<title>140186503266064</title>
<polygon fill="#cb4b16" stroke="transparent" points="14.5,-279.5 14.5,-296.5 45.5,-296.5 45.5,-279.5 14.5,-279.5"/>
<polygon fill="none" stroke="#002b36" points="14.5,-279.5 14.5,-296.5 45.5,-296.5 45.5,-279.5 14.5,-279.5"/>
<text text-anchor="start" x="17.5" y="-286.5" font-family="Helvetica,sans-Serif" font-weight="bold" font-size="10.00" fill="#fdf6e3">idx1</text>
</g>
<!-- 140186503264000 -->
<g id="node11" class="node">
<title>140186503264000</title>
<polygon fill="#fdf6e3" stroke="transparent" points="5.5,-226.5 5.5,-243.5 54.5,-243.5 54.5,-226.5 5.5,-226.5"/>
<polygon fill="none" stroke="#002b36" points="5.5,-226.5 5.5,-243.5 54.5,-243.5 54.5,-226.5 5.5,-226.5"/>
<text text-anchor="start" x="20.5" y="-233.5" font-family="Helvetica,sans-Serif" font-weight="bold" font-size="10.00" fill="#002b36">idx</text>
<polygon fill="#fdf6e3" stroke="transparent" points="54.5,-226.5 54.5,-243.5 100.5,-243.5 100.5,-226.5 54.5,-226.5"/>
<polygon fill="none" stroke="#002b36" points="54.5,-226.5 54.5,-243.5 100.5,-243.5 100.5,-226.5 54.5,-226.5"/>
<text text-anchor="start" x="69.5" y="-233.5" font-family="Helvetica,sans-Serif" font-weight="bold" font-size="10.00" fill="#002b36">elt</text>
<polygon fill="#268bd2" stroke="transparent" points="5.5,-209.5 5.5,-226.5 100.5,-226.5 100.5,-209.5 5.5,-209.5"/>
<polygon fill="none" stroke="#002b36" points="5.5,-209.5 5.5,-226.5 100.5,-226.5 100.5,-209.5 5.5,-209.5"/>
<text text-anchor="start" x="8.5" y="-216.5" font-family="Helvetica,sans-Serif" font-weight="bold" font-size="10.00" fill="#fdf6e3">__list__(idx, elt)</text>
<polygon fill="#fdf6e3" stroke="transparent" points="5.5,-192.5 5.5,-209.5 100.5,-209.5 100.5,-192.5 5.5,-192.5"/>
<polygon fill="none" stroke="#002b36" points="5.5,-192.5 5.5,-209.5 100.5,-209.5 100.5,-192.5 5.5,-192.5"/>
<text text-anchor="start" x="28.5" y="-199.5" font-family="Helvetica,sans-Serif" font-weight="bold" font-size="10.00" fill="#002b36">output_0</text>
</g>
<!-- 140186503266064&#45;&gt;140186503264000 -->
<g id="edge5" class="edge">
<title>140186503266064&#45;&gt;140186503264000:idx</title>
<path fill="none" stroke="#002b36" d="M29.5,-279.8C29.5,-273.41 29.5,-263.86 29.5,-254.27"/>
<polygon fill="#002b36" stroke="#002b36" points="33,-254 29.5,-244 26,-254 33,-254"/>
</g>
<!-- 140186503265584 -->
<g id="node5" class="node">
<title>140186503265584</title>
<polygon fill="#cb4b16" stroke="transparent" points="16.5,-419.5 16.5,-436.5 47.5,-436.5 47.5,-419.5 16.5,-419.5"/>
<polygon fill="none" stroke="#002b36" points="16.5,-419.5 16.5,-436.5 47.5,-436.5 47.5,-419.5 16.5,-419.5"/>
<text text-anchor="start" x="19.5" y="-426.5" font-family="Helvetica,sans-Serif" font-weight="bold" font-size="10.00" fill="#fdf6e3">idx0</text>
</g>
<!-- 140186503265584&#45;&gt;140186503263664 -->
<g id="edge14" class="edge">
<title>140186503265584&#45;&gt;140186503263664:idx</title>
<path fill="none" stroke="#002b36" d="M31.5,-419.8C31.5,-413.41 31.5,-403.86 31.5,-394.27"/>
<polygon fill="#002b36" stroke="#002b36" points="35,-394 31.5,-384 28,-394 35,-394"/>
</g>
<!-- 140186503263088 -->
<g id="node6" class="node">
<title>140186503263088</title>
<polygon fill="#cb4b16" stroke="transparent" points="317.5,-559.5 317.5,-576.5 330.5,-576.5 330.5,-559.5 317.5,-559.5"/>
<polygon fill="none" stroke="#002b36" points="317.5,-559.5 317.5,-576.5 330.5,-576.5 330.5,-559.5 317.5,-559.5"/>
<text text-anchor="start" x="320.5" y="-566.5" font-family="Helvetica,sans-Serif" font-weight="bold" font-size="10.00" fill="#fdf6e3">y</text>
</g>
<!-- 140186503263088&#45;&gt;140186504620224 -->
<g id="edge2" class="edge">
<title>140186503263088&#45;&gt;140186504620224:y</title>
<path fill="none" stroke="#002b36" d="M316.94,-564.18C302.82,-557.01 269.65,-539.95 254.41,-530.35"/>
<polygon fill="#002b36" stroke="#002b36" points="256.49,-527.53 246.5,-524 252.11,-532.99 256.49,-527.53"/>
</g>
<!-- 140186503263088&#45;&gt;140186503264528 -->
<g id="edge10" class="edge">
<title>140186503263088&#45;&gt;140186503264528:y</title>
<path fill="none" stroke="#002b36" d="M326.76,-559.88C335.27,-539.28 357.5,-480.58 357.5,-429.5 357.5,-429.5 357.5,-429.5 357.5,-217.5 357.5,-131.82 292.8,-98.09 208.59,-95.64"/>
<polygon fill="#002b36" stroke="#002b36" points="208.55,-92.14 198.5,-95.5 208.45,-99.14 208.55,-92.14"/>
</g>
<!-- 140186503256512 -->
<g id="node7" class="node">
<title>140186503256512</title>
<polygon fill="#cb4b16" stroke="transparent" points="65.5,-279.5 65.5,-296.5 85.5,-296.5 85.5,-279.5 65.5,-279.5"/>
<polygon fill="none" stroke="#002b36" points="65.5,-279.5 65.5,-296.5 85.5,-296.5 85.5,-279.5 65.5,-279.5"/>
<text text-anchor="start" x="68.5" y="-286.5" font-family="Helvetica,sans-Serif" font-weight="bold" font-size="10.00" fill="#fdf6e3">a0</text>
</g>
<!-- 140186503256512&#45;&gt;140186503264000 -->
<g id="edge6" class="edge">
<title>140186503256512&#45;&gt;140186503264000:elt</title>
<path fill="none" stroke="#002b36" d="M76.07,-279.8C76.5,-273.42 77.07,-263.87 77.34,-254.28"/>
<polygon fill="#002b36" stroke="#002b36" points="80.85,-254.05 77.5,-244 73.85,-253.95 80.85,-254.05"/>
</g>
<!-- 140186503265248 -->
<g id="node8" class="node">
<title>140186503265248</title>
<polygon fill="#cb4b16" stroke="transparent" points="97.5,0.5 97.5,-16.5 161.5,-16.5 161.5,0.5 97.5,0.5"/>
<polygon fill="none" stroke="#002b36" points="97.5,0.5 97.5,-16.5 161.5,-16.5 161.5,0.5 97.5,0.5"/>
<text text-anchor="start" x="100.5" y="-6.5" font-family="Helvetica,sans-Serif" font-weight="bold" font-size="10.00" fill="#fdf6e3">forest_acc</text>
</g>
<!-- 140186503264240 -->
<g id="node9" class="node">
<title>140186503264240</title>
<polygon fill="#cb4b16" stroke="transparent" points="250.5,-559.5 250.5,-576.5 298.5,-576.5 298.5,-559.5 250.5,-559.5"/>
<polygon fill="none" stroke="#002b36" points="250.5,-559.5 250.5,-576.5 298.5,-576.5 298.5,-559.5 250.5,-559.5"/>
<text text-anchor="start" x="253.5" y="-566.5" font-family="Helvetica,sans-Serif" font-weight="bold" font-size="10.00" fill="#fdf6e3">n_trees</text>
</g>
<!-- 140186503264240&#45;&gt;140186504620224 -->
<g id="edge3" class="edge">
<title>140186503264240&#45;&gt;140186504620224:n_trees</title>
<path fill="none" stroke="#002b36" d="M281.22,-559.76C286.07,-553.56 292.24,-544.25 295.02,-534.21"/>
<polygon fill="#002b36" stroke="#002b36" points="298.53,-534.4 296.5,-524 291.6,-533.4 298.53,-534.4"/>
</g>
<!-- 140186504620224&#45;&gt;140186503264432 -->
<g id="edge4" class="edge">
<title>140186504620224:output_0&#45;&gt;140186503264432</title>
<path fill="none" stroke="#002b36" d="M177.5,-480.5C150.78,-480.5 125.93,-459.65 111.48,-444.61"/>
<polygon fill="#002b36" stroke="#002b36" points="113.9,-442.07 104.58,-437.03 108.72,-446.78 113.9,-442.07"/>
</g>
<!-- 140186503264000&#45;&gt;140186503263856 -->
<g id="edge7" class="edge">
<title>140186503264000:lst&#45;&gt;140186503263856</title>
<path fill="none" stroke="#002b36" d="M57.92,-192.95C59.81,-184.37 61.9,-174.91 63.64,-167.01"/>
<polygon fill="#002b36" stroke="#002b36" points="67.08,-167.67 65.81,-157.15 60.24,-166.16 67.08,-167.67"/>
</g>
<!-- 140186503264528&#45;&gt;140186503265248 -->
<g id="edge11" class="edge">
<title>140186503264528:output_0&#45;&gt;140186503265248</title>
<path fill="none" stroke="#002b36" d="M129.5,-53C129.5,-44.58 129.5,-35.24 129.5,-27.38"/>
<polygon fill="#002b36" stroke="#002b36" points="133,-27.2 129.5,-17.2 126,-27.2 133,-27.2"/>
</g>
<!-- 140186504625504 -->
<g id="node13" class="node">
<title>140186504625504</title>
<polygon fill="#268bd2" stroke="transparent" points="198.5,-630 198.5,-647 308.5,-647 308.5,-630 198.5,-630"/>
<polygon fill="none" stroke="#002b36" points="198.5,-630 198.5,-647 308.5,-647 308.5,-630 198.5,-630"/>
<text text-anchor="start" x="208" y="-637" font-family="Helvetica,sans-Serif" font-weight="bold" font-size="10.00" fill="#fdf6e3">generate_data()</text>
<polygon fill="#fdf6e3" stroke="transparent" points="198.5,-613 198.5,-630 253.5,-630 253.5,-613 198.5,-613"/>
<polygon fill="none" stroke="#002b36" points="198.5,-613 198.5,-630 253.5,-630 253.5,-613 198.5,-613"/>
<text text-anchor="start" x="201.5" y="-620" font-family="Helvetica,sans-Serif" font-weight="bold" font-size="10.00" fill="#002b36">output_0</text>
<polygon fill="#fdf6e3" stroke="transparent" points="253.5,-613 253.5,-630 308.5,-630 308.5,-613 253.5,-613"/>
<polygon fill="none" stroke="#002b36" points="253.5,-613 253.5,-630 308.5,-630 308.5,-613 253.5,-613"/>
<text text-anchor="start" x="256.5" y="-620" font-family="Helvetica,sans-Serif" font-weight="bold" font-size="10.00" fill="#002b36">output_1</text>
</g>
<!-- 140186504625504&#45;&gt;140186503264864 -->
<g id="edge12" class="edge">
<title>140186504625504:output_0&#45;&gt;140186503264864</title>
<path fill="none" stroke="#002b36" d="M225.5,-613C225.5,-603.34 221.25,-593.57 216.57,-585.74"/>
<polygon fill="#002b36" stroke="#002b36" points="219.39,-583.65 210.91,-577.29 213.57,-587.55 219.39,-583.65"/>
</g>
<!-- 140186504625504&#45;&gt;140186503263088 -->
<g id="edge13" class="edge">
<title>140186504625504:output_1&#45;&gt;140186503263088</title>
<path fill="none" stroke="#002b36" d="M309.5,-621C323.82,-621 325.95,-602.22 325.39,-587.34"/>
<polygon fill="#002b36" stroke="#002b36" points="328.86,-586.8 324.6,-577.1 321.88,-587.34 328.86,-586.8"/>
</g>
<!-- 140186503263664&#45;&gt;140186503256512 -->
<g id="edge16" class="edge">
<title>140186503263664:elt&#45;&gt;140186503256512</title>
<path fill="none" stroke="#002b36" d="M65.92,-332.95C67.81,-324.37 69.9,-314.91 71.64,-307.01"/>
<polygon fill="#002b36" stroke="#002b36" points="75.08,-307.67 73.81,-297.15 68.24,-306.16 75.08,-307.67"/>
</g>
</g>
</svg>
