<?xml version="1.0" encoding="UTF-8" standalone="no"?>
<!DOCTYPE svg PUBLIC "-//W3C//DTD SVG 1.1//EN"
 "http://www.w3.org/Graphics/SVG/1.1/DTD/svg11.dtd">
<!-- Generated by graphviz version 2.50.0 (0)
 -->
<!-- Title: G Pages: 1 -->
<svg width="286pt" height="375pt"
 viewBox="0.00 0.00 285.64 375.00" xmlns="http://www.w3.org/2000/svg" xmlns:xlink="http://www.w3.org/1999/xlink">
<g id="graph0" class="graph" transform="scale(1 1) rotate(0) translate(4 371)">
<title>G</title>
<polygon fill="white" stroke="transparent" points="-4,4 -4,-371 281.64,-371 281.64,4 -4,4"/>
<!-- 140261556989536 -->
<g id="node1" class="node">
<title>140261556989536</title>
<polygon fill="#cb4b16" stroke="transparent" points="183.5,-279.5 183.5,-296.5 231.5,-296.5 231.5,-279.5 183.5,-279.5"/>
<polygon fill="none" stroke="#002b36" points="183.5,-279.5 183.5,-296.5 231.5,-296.5 231.5,-279.5 183.5,-279.5"/>
<text text-anchor="start" x="186.5" y="-286.5" font-family="Helvetica,sans-Serif" font-weight="bold" font-size="10.00" fill="#fdf6e3">n_trees</text>
</g>
<!-- 140261556985072 -->
<g id="node6" class="node">
<title>140261556985072</title>
<polygon fill="#fdf6e3" stroke="transparent" points="111.5,-226.5 111.5,-243.5 163.5,-243.5 163.5,-226.5 111.5,-226.5"/>
<polygon fill="none" stroke="#002b36" points="111.5,-226.5 111.5,-243.5 163.5,-243.5 163.5,-226.5 111.5,-226.5"/>
<text text-anchor="start" x="133.5" y="-233.5" font-family="Helvetica,sans-Serif" font-weight="bold" font-size="10.00" fill="#002b36">X</text>
<polygon fill="#fdf6e3" stroke="transparent" points="163.5,-226.5 163.5,-243.5 195.5,-243.5 195.5,-226.5 163.5,-226.5"/>
<polygon fill="none" stroke="#002b36" points="163.5,-226.5 163.5,-243.5 195.5,-243.5 195.5,-226.5 163.5,-226.5"/>
<text text-anchor="start" x="176" y="-233.5" font-family="Helvetica,sans-Serif" font-weight="bold" font-size="10.00" fill="#002b36">y</text>
<polygon fill="#fdf6e3" stroke="transparent" points="195.5,-226.5 195.5,-243.5 262.5,-243.5 262.5,-226.5 195.5,-226.5"/>
<polygon fill="none" stroke="#002b36" points="195.5,-226.5 195.5,-243.5 262.5,-243.5 262.5,-226.5 195.5,-226.5"/>
<text text-anchor="start" x="208" y="-233.5" font-family="Helvetica,sans-Serif" font-weight="bold" font-size="10.00" fill="#002b36">n_trees</text>
<polygon fill="#268bd2" stroke="transparent" points="111.5,-209.5 111.5,-226.5 262.5,-226.5 262.5,-209.5 111.5,-209.5"/>
<polygon fill="none" stroke="#002b36" points="111.5,-209.5 111.5,-226.5 262.5,-226.5 262.5,-209.5 111.5,-209.5"/>
<text text-anchor="start" x="114.5" y="-216.5" font-family="Helvetica,sans-Serif" font-weight="bold" font-size="10.00" fill="#fdf6e3">train_forest(X, y, n_trees)</text>
<polygon fill="#fdf6e3" stroke="transparent" points="111.5,-192.5 111.5,-209.5 262.5,-209.5 262.5,-192.5 111.5,-192.5"/>
<polygon fill="none" stroke="#002b36" points="111.5,-192.5 111.5,-209.5 262.5,-209.5 262.5,-192.5 111.5,-192.5"/>
<text text-anchor="start" x="162.5" y="-199.5" font-family="Helvetica,sans-Serif" font-weight="bold" font-size="10.00" fill="#002b36">output_0</text>
</g>
<!-- 140261556989536&#45;&gt;140261556985072 -->
<g id="edge3" class="edge">
<title>140261556989536&#45;&gt;140261556985072:n_trees</title>
<path fill="none" stroke="#002b36" d="M214.22,-279.76C219.07,-273.56 225.24,-264.25 228.02,-254.21"/>
<polygon fill="#002b36" stroke="#002b36" points="231.53,-254.4 229.5,-244 224.6,-253.4 231.53,-254.4"/>
</g>
<!-- 140261556991216 -->
<g id="node2" class="node">
<title>140261556991216</title>
<polygon fill="#cb4b16" stroke="transparent" points="37.5,0.5 37.5,-16.5 101.5,-16.5 101.5,0.5 37.5,0.5"/>
<polygon fill="none" stroke="#002b36" points="37.5,0.5 37.5,-16.5 101.5,-16.5 101.5,0.5 37.5,0.5"/>
<text text-anchor="start" x="40.5" y="-6.5" font-family="Helvetica,sans-Serif" font-weight="bold" font-size="10.00" fill="#fdf6e3">forest_acc</text>
</g>
<!-- 140261556992176 -->
<g id="node3" class="node">
<title>140261556992176</title>
<polygon fill="#cb4b16" stroke="transparent" points="130.5,-279.5 130.5,-296.5 144.5,-296.5 144.5,-279.5 130.5,-279.5"/>
<polygon fill="none" stroke="#002b36" points="130.5,-279.5 130.5,-296.5 144.5,-296.5 144.5,-279.5 130.5,-279.5"/>
<text text-anchor="start" x="133.5" y="-286.5" font-family="Helvetica,sans-Serif" font-weight="bold" font-size="10.00" fill="#fdf6e3">X</text>
</g>
<!-- 140261556992176&#45;&gt;140261556985072 -->
<g id="edge1" class="edge">
<title>140261556992176&#45;&gt;140261556985072:X</title>
<path fill="none" stroke="#002b36" d="M137.5,-279.8C137.5,-273.41 137.5,-263.86 137.5,-254.27"/>
<polygon fill="#002b36" stroke="#002b36" points="141,-254 137.5,-244 134,-254 141,-254"/>
</g>
<!-- 140261556982576 -->
<g id="node7" class="node">
<title>140261556982576</title>
<polygon fill="#fdf6e3" stroke="transparent" points="0.5,-86.5 0.5,-103.5 73.5,-103.5 73.5,-86.5 0.5,-86.5"/>
<polygon fill="none" stroke="#002b36" points="0.5,-86.5 0.5,-103.5 73.5,-103.5 73.5,-86.5 0.5,-86.5"/>
<text text-anchor="start" x="22" y="-93.5" font-family="Helvetica,sans-Serif" font-weight="bold" font-size="10.00" fill="#002b36">trees</text>
<polygon fill="#fdf6e3" stroke="transparent" points="73.5,-86.5 73.5,-103.5 105.5,-103.5 105.5,-86.5 73.5,-86.5"/>
<polygon fill="none" stroke="#002b36" points="73.5,-86.5 73.5,-103.5 105.5,-103.5 105.5,-86.5 73.5,-86.5"/>
<text text-anchor="start" x="85.5" y="-93.5" font-family="Helvetica,sans-Serif" font-weight="bold" font-size="10.00" fill="#002b36">X</text>
<polygon fill="#fdf6e3" stroke="transparent" points="105.5,-86.5 105.5,-103.5 137.5,-103.5 137.5,-86.5 105.5,-86.5"/>
<polygon fill="none" stroke="#002b36" points="105.5,-86.5 105.5,-103.5 137.5,-103.5 137.5,-86.5 105.5,-86.5"/>
<text text-anchor="start" x="118" y="-93.5" font-family="Helvetica,sans-Serif" font-weight="bold" font-size="10.00" fill="#002b36">y</text>
<polygon fill="#268bd2" stroke="transparent" points="0.5,-69.5 0.5,-86.5 137.5,-86.5 137.5,-69.5 0.5,-69.5"/>
<polygon fill="none" stroke="#002b36" points="0.5,-69.5 0.5,-86.5 137.5,-86.5 137.5,-69.5 0.5,-69.5"/>
<text text-anchor="start" x="3.5" y="-76.5" font-family="Helvetica,sans-Serif" font-weight="bold" font-size="10.00" fill="#fdf6e3">eval_forest(trees, X, y)</text>
<polygon fill="#fdf6e3" stroke="transparent" points="0.5,-52.5 0.5,-69.5 137.5,-69.5 137.5,-52.5 0.5,-52.5"/>
<polygon fill="none" stroke="#002b36" points="0.5,-52.5 0.5,-69.5 137.5,-69.5 137.5,-52.5 0.5,-52.5"/>
<text text-anchor="start" x="44.5" y="-59.5" font-family="Helvetica,sans-Serif" font-weight="bold" font-size="10.00" fill="#002b36">output_0</text>
</g>
<!-- 140261556992176&#45;&gt;140261556982576 -->
<g id="edge6" class="edge">
<title>140261556992176&#45;&gt;140261556982576:X</title>
<path fill="none" stroke="#002b36" d="M130.48,-281.56C121.94,-273.88 107.89,-259.6 101.5,-244 79.19,-189.48 88.29,-168.81 89.4,-114.22"/>
<polygon fill="#002b36" stroke="#002b36" points="92.9,-114.04 89.5,-104 85.9,-113.96 92.9,-114.04"/>
</g>
<!-- 140261556991600 -->
<g id="node4" class="node">
<title>140261556991600</title>
<polygon fill="#cb4b16" stroke="transparent" points="250.5,-279.5 250.5,-296.5 263.5,-296.5 263.5,-279.5 250.5,-279.5"/>
<polygon fill="none" stroke="#002b36" points="250.5,-279.5 250.5,-296.5 263.5,-296.5 263.5,-279.5 250.5,-279.5"/>
<text text-anchor="start" x="253.5" y="-286.5" font-family="Helvetica,sans-Serif" font-weight="bold" font-size="10.00" fill="#fdf6e3">y</text>
</g>
<!-- 140261556991600&#45;&gt;140261556985072 -->
<g id="edge2" class="edge">
<title>140261556991600&#45;&gt;140261556985072:y</title>
<path fill="none" stroke="#002b36" d="M249.94,-284.18C235.82,-277.01 202.65,-259.95 187.41,-250.35"/>
<polygon fill="#002b36" stroke="#002b36" points="189.49,-247.53 179.5,-244 185.11,-252.99 189.49,-247.53"/>
</g>
<!-- 140261556991600&#45;&gt;140261556982576 -->
<g id="edge7" class="edge">
<title>140261556991600&#45;&gt;140261556982576:y</title>
<path fill="none" stroke="#002b36" d="M260.62,-279.92C269.09,-263.23 286.44,-222.49 271.5,-193 239.92,-130.69 214.3,-98.58 148.5,-95.71"/>
<polygon fill="#002b36" stroke="#002b36" points="148.57,-92.21 138.5,-95.5 148.42,-99.21 148.57,-92.21"/>
</g>
<!-- 140261556985648 -->
<g id="node5" class="node">
<title>140261556985648</title>
<polygon fill="#cb4b16" stroke="transparent" points="18.5,-139.5 18.5,-156.5 54.5,-156.5 54.5,-139.5 18.5,-139.5"/>
<polygon fill="none" stroke="#002b36" points="18.5,-139.5 18.5,-156.5 54.5,-156.5 54.5,-139.5 18.5,-139.5"/>
<text text-anchor="start" x="21.5" y="-146.5" font-family="Helvetica,sans-Serif" font-weight="bold" font-size="10.00" fill="#fdf6e3">trees</text>
</g>
<!-- 140261556985648&#45;&gt;140261556982576 -->
<g id="edge5" class="edge">
<title>140261556985648&#45;&gt;140261556982576:trees</title>
<path fill="none" stroke="#002b36" d="M36.5,-139.8C36.5,-133.41 36.5,-123.86 36.5,-114.27"/>
<polygon fill="#002b36" stroke="#002b36" points="40,-114 36.5,-104 33,-114 40,-114"/>
</g>
<!-- 140261556985072&#45;&gt;140261556985648 -->
<g id="edge4" class="edge">
<title>140261556985072:output_0&#45;&gt;140261556985648</title>
<path fill="none" stroke="#002b36" d="M110.5,-200.5C85.2,-200.5 62.26,-180.03 48.84,-165.03"/>
<polygon fill="#002b36" stroke="#002b36" points="51.21,-162.42 42.09,-157.03 45.86,-166.93 51.21,-162.42"/>
</g>
<!-- 140261556982576&#45;&gt;140261556991216 -->
<g id="edge8" class="edge">
<title>140261556982576:output_0&#45;&gt;140261556991216</title>
<path fill="none" stroke="#002b36" d="M69.5,-53C69.5,-44.58 69.5,-35.24 69.5,-27.38"/>
<polygon fill="#002b36" stroke="#002b36" points="73,-27.2 69.5,-17.2 66,-27.2 73,-27.2"/>
</g>
<!-- 140261556990112 -->
<g id="node8" class="node">
<title>140261556990112</title>
<polygon fill="#268bd2" stroke="transparent" points="131.5,-350 131.5,-367 241.5,-367 241.5,-350 131.5,-350"/>
<polygon fill="none" stroke="#002b36" points="131.5,-350 131.5,-367 241.5,-367 241.5,-350 131.5,-350"/>
<text text-anchor="start" x="141" y="-357" font-family="Helvetica,sans-Serif" font-weight="bold" font-size="10.00" fill="#fdf6e3">generate_data()</text>
<polygon fill="#fdf6e3" stroke="transparent" points="131.5,-333 131.5,-350 186.5,-350 186.5,-333 131.5,-333"/>
<polygon fill="none" stroke="#002b36" points="131.5,-333 131.5,-350 186.5,-350 186.5,-333 131.5,-333"/>
<text text-anchor="start" x="134.5" y="-340" font-family="Helvetica,sans-Serif" font-weight="bold" font-size="10.00" fill="#002b36">output_0</text>
<polygon fill="#fdf6e3" stroke="transparent" points="186.5,-333 186.5,-350 241.5,-350 241.5,-333 186.5,-333"/>
<polygon fill="none" stroke="#002b36" points="186.5,-333 186.5,-350 241.5,-350 241.5,-333 186.5,-333"/>
<text text-anchor="start" x="189.5" y="-340" font-family="Helvetica,sans-Serif" font-weight="bold" font-size="10.00" fill="#002b36">output_1</text>
</g>
<!-- 140261556990112&#45;&gt;140261556992176 -->
<g id="edge9" class="edge">
<title>140261556990112:output_0&#45;&gt;140261556992176</title>
<path fill="none" stroke="#002b36" d="M158.5,-333C158.5,-323.34 154.25,-313.57 149.57,-305.74"/>
<polygon fill="#002b36" stroke="#002b36" points="152.39,-303.65 143.91,-297.29 146.57,-307.55 152.39,-303.65"/>
</g>
<!-- 140261556990112&#45;&gt;140261556991600 -->
<g id="edge10" class="edge">
<title>140261556990112:output_1&#45;&gt;140261556991600</title>
<path fill="none" stroke="#002b36" d="M242.5,-341C256.82,-341 258.95,-322.22 258.39,-307.34"/>
<polygon fill="#002b36" stroke="#002b36" points="261.86,-306.8 257.6,-297.1 254.88,-307.34 261.86,-306.8"/>
</g>
</g>
</svg>
